HIERARCHY
ROOT Hips
{
 OFFSET 0.000000 0.000000 0.000000
 CHANNELS 6 Xposition Yposition Zposition Yrotation Xrotation Zrotation
 JOINT Chest
 {
  OFFSET 0.000000 9.585900 0.002600
  CHANNELS 3 Yrotation Xrotation Zrotation
  JOINT Chest2
  {
   OFFSET 0.000000 9.601200 -0.005300
   CHANNELS 3 Yrotation Xrotation Zrotation
   JOINT Chest3
   {
    OFFSET 0.000000 9.561800 0.000000
    CHANNELS 3 Yrotation Xrotation Zrotation
    JOINT Chest4
    {
     OFFSET 0.000000 9.552100 0.000000
     CHANNELS 3 Yrotation Xrotation Zrotation
     JOINT Neck
     {
      OFFSET 0.000000 14.453000 0.000000
      CHANNELS 3 Yrotation Xrotation Zrotation
      JOINT Head
      {
       OFFSET 0.000000 8.936500 -0.011300
       CHANNELS 3 Yrotation Xrotation Zrotation
       End Site
       {
        OFFSET 0.000000 17.073600 -0.006000
       }
      }
     }
     JOINT RightCollar
     {
      OFFSET -2.921100 9.558500 0.000000
      CHANNELS 3 Yrotation Xrotation Zrotation
      JOINT RightShoulder
      {
       OFFSET -13.519700 0.000000 0.000000
       CHANNELS 3 Yrotation Xrotation Zrotation
       JOINT RightElbow
       {
        OFFSET 0.000000 -29.696600 0.000000
        CHANNELS 3 Yrotation Xrotation Zrotation
        JOINT RightWrist
        {
         OFFSET 0.000000 -24.004700 0.000000
         CHANNELS 3 Yrotation Xrotation Zrotation
         End Site
         {
          OFFSET 0.000000 -17.728500 0.000000
         }
        }
       }
      }
     }
     JOINT LeftCollar
     {
      OFFSET 2.921100 9.558500 0.000000
      CHANNELS 3 Yrotation Xrotation Zrotation
      JOINT LeftShoulder
      {
       OFFSET 13.519700 0.000000 0.000000
       CHANNELS 3 Yrotation Xrotation Zrotation
       JOINT LeftElbow
       {
        OFFSET 0.000000 -29.696600 0.000000
        CHANNELS 3 Yrotation Xrotation Zrotation
        JOINT LeftWrist
        {
         OFFSET 0.000000 -24.004700 0.000000
         CHANNELS 3 Yrotation Xrotation Zrotation
         End Site
         {
          OFFSET 0.000000 -17.728500 0.000000
         }
        }
       }
      }
     }
    }
   }
  }
 }
 JOINT RightHip
 {
  OFFSET -7.771700 -0.012900 -0.001300
  CHANNELS 3 Yrotation Xrotation Zrotation
  JOINT RightKnee
  {
   OFFSET 0.000000 -40.869800 0.001200
   CHANNELS 3 Yrotation Xrotation Zrotation
   JOINT RightAnkle
   {
    OFFSET 0.000000 -39.717900 0.002100
    CHANNELS 3 Yrotation Xrotation Zrotation
    JOINT RightToe
    {
     OFFSET 0.000000 -4.965400 11.033500
     CHANNELS 3 Yrotation Xrotation Zrotation
     End Site
     {
      OFFSET 0.000000 -1.423100 5.872300
     }
    }
   }
  }
 }
 JOINT LeftHip
 {
  OFFSET 7.771700 -0.012900 -0.001300
  CHANNELS 3 Yrotation Xrotation Zrotation
  JOINT LeftKnee
  {
   OFFSET 0.000000 -40.869800 0.001200
   CHANNELS 3 Yrotation Xrotation Zrotation
   JOINT LeftAnkle
   {
    OFFSET 0.000000 -39.717900 0.002100
    CHANNELS 3 Yrotation Xrotation Zrotation
    JOINT LeftToe
    {
     OFFSET 0.000000 -4.965400 11.033500
     CHANNELS 3 Yrotation Xrotation Zrotation
     End Site
     {
      OFFSET 0.000000 -1.423100 5.872300
     }
    }
   }
  }
 }
}
MOTION
Frames: 5
Frame Time: 0.008333
0.000000 85.388000 0.000000 0.000000 -5.767877 0.000000 0.000000 11.653817 0.000000 0.000000 -5.885947 0.000000 0.000000 -0.000000 0.000000 0.000000 -0.000000 0.000000 0.000000 12.528835 0.000000 0.000000 0.711642 0.000000 0.000000 -0.000000 0.000000 0.000000 0.000000 -90.000000 0.000000 -2.309062 0.000000 0.000000 2.309062 0.000000 0.000000 -0.000000 0.000000 0.000000 -0.000000 90.000000 0.000000 -2.309062 0.000000 0.000000 2.309062 0.000000 0.000000 8.520406 0.000000 0.000000 1.905762 0.000000 -0.000000 -4.658285 0.000000 0.000000 -0.000000 0.000000 0.000000 8.520406 0.000000 0.000000 1.905762 0.000000 -0.000000 -4.658285 0.000000 0.000000 -0.000000 0.000000
-33.912668 55.084832 41.101195 -179.300201 -31.318260 -10.960417 0.768099 15.830670 6.547150 0.303983 9.249799 2.366541 0.401398 11.579298 2.962248 0.301344 9.255924 2.362036 9.454922 27.400891 -3.249849 11.348263 5.294652 -5.808942 0.418897 5.985146 -2.519107 -16.345587 -9.328065 6.135776 56.783456 -80.025901 -42.493428 13.579218 -3.287301 -14.889828 -11.732352 3.877346 -3.849060 2.234628 -28.779608 1.920984 -139.420024 -38.222388 145.694749 20.526891 -32.627201 22.284699 -17.980923 -34.728777 5.214637 45.155213 85.403109 39.976374 -1.492260 -19.218284 3.174615 -0.785485 2.295357 -0.362885 -14.760435 -46.688945 15.616639 174.175530 79.617380 169.114914 -1.420620 -17.177560 2.514147 -0.743967 -1.477638 -0.364728
-33.919523 55.087774 41.082799 -179.254945 -31.370170 -10.953488 0.760952 15.878042 6.534721 0.290015 9.250909 2.363252 0.426313 11.566827 2.969938 0.304819 9.249963 2.366611 9.432819 27.399235 -3.238417 11.375248 5.220170 -5.804505 0.408863 5.990402 -2.496706 -16.373155 -9.284728 6.178865 55.368791 -80.145182 -41.198938 13.501158 -3.243091 -15.046662 -11.770494 3.907651 -3.855816 2.169668 -28.665049 1.866618 -139.535426 -38.593897 145.718339 20.561101 -32.378758 22.185974 -17.955067 -34.678641 5.150744 45.149051 85.411882 39.978139 -1.521749 -19.188130 3.165405 -0.747688 2.254677 -0.336624 -14.774331 -46.669412 15.470257 173.726236 79.543724 168.662547 -1.290478 -17.110581 2.514319 -0.852297 -1.580779 -0.408640
-33.920187 55.087518 41.069944 -179.204692 -31.374168 -10.988587 0.748838 15.878227 6.562267 0.277023 9.252222 2.360609 0.468361 11.527241 2.998200 0.296026 9.243395 2.371489 9.392635 27.424369 -3.242542 11.392653 5.123939 -5.817254 0.420116 5.995595 -2.469330 -16.417764 -9.223608 6.190111 54.055543 -80.256235 -40.001901 13.430415 -3.222518 -15.199415 -11.821242 3.956781 -3.884583 2.107757 -28.550335 1.805703 -139.551916 -38.888668 145.701443 20.558477 -32.155685 22.154670 -17.989050 -34.658604 5.158142 45.247453 85.428045 40.068613 -1.500667 -19.192316 3.175453 -0.774926 2.234069 -0.342192 -14.852472 -46.673392 15.420255 173.382519 79.500561 168.344313 -1.267797 -17.075784 2.488944 -0.851260 -1.629656 -0.428440
-33.926194 55.087090 41.054050 -179.154058 -31.388802 -10.993719 0.727019 15.889407 6.558645 0.299519 9.228727 2.380060 0.436745 11.533388 2.992513 0.299586 9.228784 2.380053 9.389897 27.402532 -3.246814 11.385978 5.062418 -5.829265 0.433669 5.997257 -2.449082 -16.436137 -9.175551 6.204134 52.943126 -80.346384 -39.000524 13.364633 -3.222342 -15.336144 -11.836705 3.996515 -3.912418 2.045655 -28.447340 1.742593 -139.498627 -39.124256 145.650002 20.529695 -31.954967 22.158525 -17.999889 -34.639761 5.135863 45.361251 85.458786 40.158340 -1.484334 -19.208206 3.194797 -0.781376 2.216324 -0.341014 -14.895959 -46.670958 15.341430 173.126507 79.462593 168.113353 -1.369208 -17.027263 2.500660 -0.866546 -1.685196 -0.429884
